<svg width="432" height="240" viewBox="0 0 432 240" fill="none" xmlns="http://www.w3.org/2000/svg">
<rect x="42.1952" y="87.4964" width="148.342" height="51.688" rx="25.844" transform="rotate(54.721 42.1952 87.4964)" fill="#0D29B7"/>
<rect x="182.264" y="116.518" width="148.342" height="51.688" rx="25.844" transform="rotate(123.653 182.264 116.518)" fill="#08D485"/>
<path d="M265.048 115.549V128.346H257.259V153.718C260.263 153.551 263.212 153.273 266.05 152.939L266.606 164.623C247.689 167.85 225.767 168.295 209.743 168.295L208.074 155.387L218.2 155.276V128.346H210.633V115.549H265.048ZM294.648 109.095V171.3H278.736V157.168H267.719V144.482H278.736V137.694H267.719V125.119H278.736V109.095H294.648ZM259.373 172.746C281.629 172.746 294.871 179.757 294.982 192.22C294.871 204.127 281.629 211.36 259.373 211.249C237.34 211.36 224.098 204.127 224.098 192.22C224.098 179.757 237.34 172.746 259.373 172.746ZM259.373 184.876C246.465 184.876 240.011 187.101 240.011 192.22C240.011 197.005 246.465 199.119 259.373 199.231C272.393 199.119 278.958 197.005 279.069 192.22C278.958 187.101 272.393 184.876 259.373 184.876ZM233.668 154.942L242.014 154.719V128.346H233.668V154.942ZM340.05 126.677C339.939 137.36 344.835 147.765 357.743 153.162V110.987H372.543V133.354H379.442V109.207H394.687V171.522H379.442V146.262H372.543V168.295H357.743V154.831L350.176 165.847C341.83 162.62 336.1 157.001 332.483 149.934C328.811 158.392 322.635 165.402 313.343 169.186L304.775 156.834C319.352 150.38 324.36 138.028 324.36 126.677V115.327H340.05V126.677ZM359.412 172.524C381.112 172.524 395.133 179.868 395.244 191.886C395.133 203.904 381.112 211.36 359.412 211.249C337.713 211.36 323.692 203.904 323.803 191.886C323.692 179.868 337.713 172.524 359.412 172.524ZM359.412 184.542C346.838 184.431 339.716 186.879 339.827 191.886C339.716 196.894 346.838 199.231 359.412 199.231C371.987 199.231 378.997 196.894 379.109 191.886C378.997 186.879 371.987 184.431 359.412 184.542Z" fill="#454545"/>
<path d="M37.5404 9.35233V12.4125H34.1226V23.1826C35.6328 23.0634 37.0834 22.9243 38.4942 22.7454L38.6532 25.6069C31.8175 26.6799 23.8293 26.7991 18.1065 26.7991L17.6296 23.6595L21.9615 23.6198V12.4125H18.6231V9.35233H37.5404ZM47.2772 6.76909V28.667H43.5017V22.4673H38.057V19.4468H43.5017V15.9893H38.057V12.9689H43.5017V6.76909H47.2772ZM35.3546 29.3426C42.8658 29.3426 47.3964 31.6874 47.3964 35.8604C47.3964 39.9141 42.8658 42.3383 35.3546 42.2986C27.8433 42.3383 23.2729 39.9141 23.3127 35.8604C23.2729 31.6874 27.8433 29.3426 35.3546 29.3426ZM35.3546 32.2836C30.1086 32.2836 27.0485 33.5553 27.0485 35.8604C27.0485 38.1257 30.1086 39.3974 35.3546 39.3974C40.5608 39.3974 43.6607 38.1257 43.6607 35.8604C43.6607 33.5553 40.5608 32.2836 35.3546 32.2836ZM25.6177 23.58C27.2273 23.5403 28.8567 23.4807 30.506 23.3813V12.4125H25.6177V23.58ZM63.651 13.6047C63.651 17.4995 66.1548 21.434 70.7649 23.1826L68.7777 26.0838C65.4593 24.812 63.1344 22.3878 61.8626 19.4468C60.5511 22.7653 58.107 25.6466 54.6693 27.1171L52.6027 24.1762C57.4115 22.0698 59.9947 17.579 59.9947 13.6047V8.99465H63.651V13.6047ZM83.1247 6.80883V28.7068H79.5479V19.1687H75.3749V27.594H71.8776V7.44471H75.3749V16.0688H79.5479V6.80883H83.1247ZM71.202 29.3824C78.6338 29.3824 83.2836 31.8067 83.3234 35.8604C83.2836 39.9141 78.6338 42.3383 71.202 42.2986C63.7702 42.3383 59.1204 39.9141 59.1601 35.8604C59.1204 31.8067 63.7702 29.3824 71.202 29.3824ZM71.202 32.2836C66.0355 32.2836 62.8562 33.5951 62.8959 35.8604C62.8562 38.1257 66.0355 39.4372 71.202 39.3974C76.3685 39.4372 79.5081 38.1257 79.5479 35.8604C79.5081 33.5951 76.3685 32.2836 71.202 32.2836ZM94.332 36.2578L91.1526 47.2266H87.7745L89.8808 36.2578H94.332ZM136.3 6.76909V15.7906H141.426V18.8905H136.3V27.7927H132.484V6.76909H136.3ZM124.774 28.4683C132.047 28.4683 136.578 31.0118 136.578 35.3835C136.578 39.7551 132.047 42.3383 124.774 42.2986C117.422 42.3383 112.812 39.7551 112.812 35.3835C112.812 31.0118 117.422 28.4683 124.774 28.4683ZM124.774 31.5285C119.608 31.4887 116.508 32.9194 116.548 35.3835C116.508 37.8475 119.608 39.2782 124.774 39.2782C129.822 39.2782 132.922 37.8475 132.961 35.3835C132.922 32.9194 129.822 31.4887 124.774 31.5285ZM125.689 9.39207V12.4522H113.527V22.1493C120.542 22.1294 124.496 21.9109 128.987 20.9968L129.345 24.0569C124.576 25.0505 120.323 25.2095 112.613 25.2095H109.792V9.39207H125.689ZM172.982 6.80883V32.8797H169.206V6.80883H172.982ZM174.055 38.5628V41.623H149.693V30.4157H153.508V38.5628H174.055ZM156.409 12.2933C156.37 17.4995 159.708 22.2685 165.192 24.1762L163.245 27.1966C159.132 25.6665 156.091 22.6461 154.502 18.7712C152.932 22.9044 149.852 26.2229 145.679 27.8324L143.652 24.8518C149.256 22.7852 152.554 17.6584 152.554 12.2933V8.7562H156.409V12.2933ZM198.456 10.5843V12.7702C198.456 15.7508 198.456 20.3609 197.423 26.7197L193.687 26.4415C194.582 20.7385 194.681 16.6252 194.721 13.6445H180.255V10.5843H198.456ZM189.316 20.7583V31.4092C193.111 31.29 196.966 31.0317 200.523 30.5747L200.722 33.3964C193.29 34.5886 185.024 34.7476 178.705 34.7078L178.267 31.6477C180.493 31.6278 182.977 31.608 185.58 31.5285V20.7583H189.316ZM206.365 6.76909V21.4737H211.81V24.6928H206.365V42.3781H202.55V6.76909H206.365ZM251.711 6.76909V15.9893H256.878V19.2084H251.711V28.2299H247.936V6.76909H251.711ZM251.711 30.0978V41.9409H228.978V30.0978H251.711ZM232.675 33.0784V38.8808H247.975V33.0784H232.675ZM244.995 10.3856V13.406H223.772V10.3856H232.516V6.49089H236.291V10.3856H244.995ZM234.383 14.956C239.51 14.956 243.007 17.4995 243.007 21.3147C243.007 25.1697 239.51 27.6735 234.383 27.7132C229.177 27.6735 225.72 25.1697 225.72 21.3147C225.72 17.4995 229.177 14.956 234.383 14.956ZM234.383 17.8572C231.363 17.8174 229.336 19.1687 229.376 21.3147C229.336 23.5403 231.363 24.8518 234.383 24.8518C237.404 24.8518 239.431 23.5403 239.47 21.3147C239.431 19.1687 237.404 17.8174 234.383 17.8572ZM267.727 10.9818C267.687 18.9699 266.694 27.1966 261.726 34.1912L258.785 32.522C262.938 26.9581 264.19 20.7981 264.468 14.0817H259.62V10.9818H267.727ZM275.636 10.9818C275.636 13.9823 275.576 17.261 275.199 20.5596H279.372V7.68316H282.948V40.6294H279.372V23.6198H274.761C273.947 28.051 272.456 32.4425 269.714 36.3373L266.773 34.6284C271.383 28.4485 272.218 20.957 272.377 14.0817H268.8V10.9818H275.636ZM289.705 6.76909V42.3781H286.088V6.76909H289.705ZM331.752 6.76909V21.1955H337.475V24.3351H331.752V42.3781H328.016V6.76909H331.752ZM324.916 12.333V15.4329H303.813V12.333H312.596V7.246H316.372V12.333H324.916ZM314.504 18.0559C319.591 18.0559 323.326 21.4737 323.366 26.3222C323.326 31.2105 319.591 34.5886 314.504 34.6284C309.377 34.5886 305.641 31.2105 305.641 26.3222C305.641 21.4737 309.377 18.0559 314.504 18.0559ZM314.504 21.1558C311.483 21.1558 309.218 23.2621 309.258 26.3222C309.218 29.4221 311.483 31.4887 314.504 31.449C317.524 31.4887 319.75 29.4221 319.75 26.3222C319.75 23.2621 317.524 21.1558 314.504 21.1558ZM368.752 6.76909V42.3781H364.976V6.76909H368.752ZM345.105 10.2267V30.058C350.292 30.0183 355.756 29.601 361.479 28.4286L361.996 31.608C355.677 32.8797 349.954 33.3169 344.35 33.3169H341.369V10.2267H345.105ZM402.652 6.76909V21.2352H407.818V24.3351H402.652V42.3781H398.876V6.76909H402.652ZM385.086 10.5843C385.086 19.4866 383.456 27.594 377.018 34.4694L374.037 32.3631C379.244 26.9581 381.131 20.818 381.509 13.6842H375.309V10.5843H385.086ZM394.902 10.5843C394.902 19.6058 393.789 29.0645 387.232 36.8142L384.211 34.7476C389.497 28.5677 391.087 21.2949 391.365 13.6842H386.238V10.5843H394.902Z" fill="#747474"/>
</svg>
