<svg width="439" height="172" viewBox="0 0 439 172" fill="none" xmlns="http://www.w3.org/2000/svg">
<rect x="47.5898" width="167.307" height="58.2959" rx="29.148" transform="rotate(54.721 47.5898 0)" fill="#0D29B7"/>
<rect x="205.564" y="32.7322" width="167.307" height="58.2959" rx="29.148" transform="rotate(123.653 205.564 32.7322)" fill="#08D485"/>
<path d="M365.021 44.1144H354.581L353.395 70.2148C348.916 81.5737 344.28 84.864 332.989 86.3496C326.781 87.1252 324.595 83.9269 321.6 75.6722V22.2849H311.634V48.1481H289.33V56.69L311.634 57.4019V70.2148H289.33V78.7567L313.058 79.4686C315.019 90.3711 319.357 94.0109 332.989 96.0779C350.693 92.9644 355.826 88.7715 360.039 78.7567C367.685 91.1663 374.114 94.5507 388.986 94.8916V86.3496C376.973 86.0681 371.976 82.3411 365.733 70.2148L365.021 44.1144Z" fill="#454545"/>
<path d="M393.018 95.3661V23.234H403.22V49.5717H418.406V23.234H428.372L428.834 77.0958C429.378 82.8894 436.794 87.8173 438.088 86.5869L438.1 95.3661C433.137 94.8721 430.348 94.3542 425.287 90.3833C419.953 86.4864 418.74 78.6466 418.406 58.8255H403.22V95.3661H393.018Z" fill="#454545"/>
<path d="M261.095 86.5868V56.9272H248.282V80.4176H238.316V56.9272H229.3V48.148H280.551V56.9272H271.06V86.5868H281.975V95.8406H219.334V86.5868H261.095Z" fill="#454545"/>
<path d="M291.704 105.095C293.974 105.129 318.753 105.094 318.753 105.094V114.348H292.416C284.39 117.758 283.695 120.927 283.162 127.161C283.742 137.172 287.29 139.722 297.636 140.449C306.721 139.809 310.038 137.469 311.161 127.873C311.001 123.611 310.202 122.39 309.025 119.806H318.753C320.657 122.095 320.95 124.079 321.126 127.873C319.783 143.535 315.129 149.037 296.449 149.702C282.655 150.041 274.064 143.615 272.959 127.161C273.329 120.358 274.072 115.861 278.416 111.738C279.892 108.806 289.433 105.061 291.704 105.095Z" fill="#454545"/>
<path d="M396.581 105.095C398.851 105.129 423.63 105.094 423.63 105.094V114.348H397.293C389.266 117.758 388.572 120.927 388.039 127.161C388.619 137.172 392.166 139.722 402.513 140.449C411.598 139.809 414.914 137.469 416.037 127.873C415.878 123.611 415.079 122.39 413.902 119.806H423.63C425.534 122.095 425.827 124.079 426.003 127.873C424.66 143.535 420.006 149.037 401.326 149.702C387.532 150.041 378.941 143.615 377.836 127.161C378.206 120.358 378.949 115.861 383.293 111.738C384.768 108.806 394.31 105.061 396.581 105.095Z" fill="#454545"/>
</svg>
