<svg width="62" height="62" viewBox="0 0 62 62" fill="none" xmlns="http://www.w3.org/2000/svg">
<path d="M32.0122 60.2084L31.9841 60.2135L31.8031 60.3028L31.7521 60.313L31.7164 60.3028L31.5353 60.2135C31.5081 60.205 31.4877 60.2093 31.4741 60.2263L31.4639 60.2518L31.4206 61.3432L31.4333 61.3942L31.4588 61.4273L31.724 61.616L31.7623 61.6262L31.7929 61.616L32.0581 61.4273L32.0887 61.3865L32.0989 61.3432L32.0555 60.2543C32.0487 60.2271 32.0343 60.2118 32.0122 60.2084ZM32.6879 59.9203L32.6548 59.9254L32.183 60.1625L32.1575 60.188L32.1499 60.2161L32.1958 61.3126L32.2085 61.3432L32.2289 61.361L32.7415 61.5982C32.7738 61.6067 32.7984 61.5999 32.8154 61.5778L32.8256 61.5421L32.7389 59.9764C32.7304 59.9458 32.7134 59.9271 32.6879 59.9203ZM30.8647 59.9254C30.8535 59.9185 30.84 59.9163 30.8272 59.9192C30.8144 59.922 30.8031 59.9297 30.7958 59.9407L30.7805 59.9764L30.6938 61.5421C30.6955 61.5727 30.71 61.5931 30.7372 61.6033L30.7754 61.5982L31.288 61.361L31.3135 61.3406L31.3237 61.3126L31.367 60.2161L31.3594 60.1855L31.3339 60.16L30.8647 59.9254Z" fill="#172B8D"/>
<path d="M30.5 6C44.5836 6 56 17.4164 56 31.5C56 45.5836 44.5836 57 30.5 57C16.4164 57 5 45.5836 5 31.5C5 17.4164 16.4164 6 30.5 6ZM30.5 39.15C29.8237 39.15 29.1751 39.4187 28.6969 39.8969C28.2187 40.3751 27.95 41.0237 27.95 41.7C27.95 42.3763 28.2187 43.0249 28.6969 43.5031C29.1751 43.9813 29.8237 44.25 30.5 44.25C31.1763 44.25 31.8249 43.9813 32.3031 43.5031C32.7813 43.0249 33.05 42.3763 33.05 41.7C33.05 41.0237 32.7813 40.3751 32.3031 39.8969C31.8249 39.4187 31.1763 39.15 30.5 39.15ZM30.5 16.2C29.8754 16.2001 29.2726 16.4294 28.8058 16.8444C28.3391 17.2595 28.0409 17.8314 27.9678 18.4516L27.95 18.75V34.05C27.9507 34.6999 28.1996 35.3251 28.6458 35.7977C29.0919 36.2703 29.7017 36.5547 30.3506 36.5928C30.9994 36.6309 31.6383 36.4198 32.1367 36.0026C32.6351 35.5855 32.9554 34.9937 33.0322 34.3483L33.05 34.05V18.75C33.05 18.0737 32.7813 17.4251 32.3031 16.9469C31.8249 16.4687 31.1763 16.2 30.5 16.2Z" fill="#172B8D"/>
</svg>
