<svg width="51" height="51" viewBox="0 0 51 51" fill="none" xmlns="http://www.w3.org/2000/svg">
<path d="M25.5 0C39.5836 0 51 11.4164 51 25.5C51 39.5836 39.5836 51 25.5 51C11.4164 51 0 39.5836 0 25.5C0 11.4164 11.4164 0 25.5 0ZM25.5 33.15C24.8237 33.15 24.1751 33.4187 23.6969 33.8969C23.2187 34.3751 22.95 35.0237 22.95 35.7C22.95 36.3763 23.2187 37.0249 23.6969 37.5031C24.1751 37.9813 24.8237 38.25 25.5 38.25C26.1763 38.25 26.8249 37.9813 27.3031 37.5031C27.7813 37.0249 28.05 36.3763 28.05 35.7C28.05 35.0237 27.7813 34.3751 27.3031 33.8969C26.8249 33.4187 26.1763 33.15 25.5 33.15ZM25.5 10.2C24.8754 10.2001 24.2726 10.4294 23.8058 10.8444C23.3391 11.2595 23.0409 11.8314 22.9678 12.4516L22.95 12.75V28.05C22.9507 28.6999 23.1996 29.3251 23.6458 29.7977C24.0919 30.2703 24.7017 30.5547 25.3506 30.5928C25.9994 30.6309 26.6383 30.4198 27.1367 30.0026C27.6351 29.5855 27.9554 28.9937 28.0321 28.3483L28.05 28.05V12.75C28.05 12.0737 27.7813 11.4251 27.3031 10.9469C26.8249 10.4687 26.1763 10.2 25.5 10.2Z" fill="#172B8D"/>
</svg>
