<svg width="219" height="128" viewBox="0 0 219 128" fill="none" xmlns="http://www.w3.org/2000/svg">
<path d="M145.687 21.8295H135.247L134.061 47.9299C129.582 59.2888 124.946 62.5791 113.655 64.0647C107.447 64.8403 105.261 61.6419 102.266 53.3872V0H92.3001V25.8632H69.9961V34.4051L92.3001 35.1169V47.9299H69.9961V56.4718L93.7238 57.1837C95.6851 68.0862 100.023 71.726 113.655 73.793C131.359 70.6795 136.492 66.4866 140.705 56.4718C148.351 68.8814 154.781 72.2658 169.652 72.6067V64.0647C157.639 63.7832 152.642 60.0562 146.399 47.9299L145.687 21.8295Z" fill="#454545"/>
<path d="M173.684 73.0812V0.949097H183.886V27.2868H199.072V0.949097H209.038L209.5 54.8109C210.044 60.6045 217.46 65.5324 218.754 64.302L218.766 73.0812C213.803 72.5872 211.014 72.0693 205.953 68.0984C200.619 64.2015 199.406 56.3616 199.072 36.5406H183.886V73.0812H173.684Z" fill="#454545"/>
<path d="M41.7607 64.3019V34.6423H28.9477V58.1327H18.9821V34.6423H9.96562V25.8631H61.2174V34.6423H51.7263V64.3019H62.641V73.5557H0V64.3019H41.7607Z" fill="#454545"/>
<path d="M72.3699 82.8097C74.6402 82.8436 99.4194 82.8094 99.4194 82.8094V92.0632H73.0821C65.0555 95.4735 64.3608 98.6425 63.8279 104.876C64.4083 114.887 67.9555 117.437 78.3018 118.164C87.3873 117.525 90.7035 115.184 91.8265 105.588C91.6673 101.326 90.8685 100.105 89.691 97.5206H99.4194C101.323 99.8096 101.616 101.794 101.792 105.588C100.449 121.251 95.7953 126.753 77.1154 127.417C63.3215 127.756 54.73 121.33 53.625 104.876C53.9953 98.0736 54.7382 93.5764 59.0824 89.4532C60.5575 86.5212 70.0995 82.7757 72.3699 82.8097Z" fill="#454545"/>
<path d="M177.247 82.8097C179.517 82.8436 204.296 82.8094 204.296 82.8094V92.0632H177.959C169.932 95.4735 169.238 98.6425 168.705 104.876C169.285 114.887 172.833 117.437 183.179 118.164C192.264 117.525 195.58 115.184 196.703 105.588C196.544 101.326 195.745 100.105 194.568 97.5206H204.296C206.2 99.8096 206.493 101.794 206.669 105.588C205.326 121.251 200.672 126.753 181.992 127.417C168.198 127.756 159.607 121.33 158.502 104.876C158.872 98.0736 159.615 93.5764 163.959 89.4532C165.434 86.5212 174.976 82.7757 177.247 82.8097Z" fill="#454545"/>
</svg>
