<svg width="109" height="37" viewBox="0 0 109 37" fill="none" xmlns="http://www.w3.org/2000/svg">
<rect x="10.0875" width="35.464" height="12.357" rx="6.17849" transform="rotate(54.721 10.0875 0)" fill="#0D29B7"/>
<rect x="43.5732" y="6.93848" width="35.464" height="12.357" rx="6.17849" transform="rotate(123.653 43.5732 6.93848)" fill="#08D485"/>
<path d="M89.1967 7.38258H86.4289L86.1144 14.1417C84.9269 17.0833 83.698 17.9353 80.7045 18.3201C79.0588 18.5209 78.4791 17.6927 77.6851 15.555V1.72949H75.0431V8.42717H69.13V10.6392L75.0431 10.8236V14.1417H69.13V16.3538L75.4205 16.5381C75.9405 19.3615 77.0906 20.3041 80.7045 20.8394C85.3981 20.0331 86.759 18.9473 87.8757 16.3538C89.9029 19.5674 91.6074 20.4439 95.5501 20.5321V18.3201C92.3652 18.2472 91.0405 17.282 89.3854 14.1417L89.1967 7.38258Z" fill="#0D29B7"/>
<path d="M96.6222 20.6553V1.97559H99.3271V8.79615H103.353V1.97559H105.995L106.118 15.924C106.262 17.4243 108.228 18.7005 108.571 18.3818L108.574 20.6553C107.258 20.5274 106.519 20.3933 105.177 19.365C103.763 18.3558 103.441 16.3255 103.353 11.1926H99.3271V20.6553H96.6222Z" fill="#0D29B7"/>
<path d="M61.6447 18.3811V10.7003H58.2478V16.7835H55.6058V10.7003H53.2154V8.42676H66.8029V10.7003H64.2867V18.3811H67.1803V20.7775H50.5733V18.3811H61.6447Z" fill="#0D29B7"/>
<path d="M69.7577 23.1739C70.3596 23.1827 76.9289 23.1738 76.9289 23.1738V25.5702H69.9465C67.8186 26.4534 67.6344 27.274 67.4931 28.8884C67.647 31.4808 68.5874 32.1411 71.3303 32.3294C73.739 32.1639 74.6182 31.5578 74.9159 29.0727C74.8737 27.9691 74.6619 27.6529 74.3498 26.9835H76.9289C77.4336 27.5763 77.5111 28.0902 77.5579 29.0727C77.2018 33.1288 75.9681 34.5536 71.0158 34.7258C67.3589 34.8136 65.0811 33.1494 64.7882 28.8884C64.8864 27.1267 65.0833 25.9621 66.235 24.8943C66.6261 24.135 69.1558 23.1651 69.7577 23.1739Z" fill="#0D29B7"/>
<path d="M97.5643 23.1739C98.1662 23.1827 104.736 23.1738 104.736 23.1738V25.5702H97.7532C95.6252 26.4534 95.441 27.274 95.2998 28.8884C95.4536 31.4808 96.394 32.1411 99.137 32.3294C101.546 32.1639 102.425 31.5578 102.723 29.0727C102.68 27.9691 102.469 27.6529 102.156 26.9835H104.736C105.24 27.5763 105.318 28.0902 105.365 29.0727C105.008 33.1288 103.775 34.5536 98.8224 34.7258C95.1655 34.8136 92.8878 33.1494 92.5948 28.8884C92.693 27.1267 92.89 25.9621 94.0416 24.8943C94.4327 24.135 96.9624 23.1651 97.5643 23.1739Z" fill="#0D29B7"/>
</svg>
