<svg width="43" height="47" viewBox="0 0 43 47" fill="none" xmlns="http://www.w3.org/2000/svg">
<path d="M21.5 0.25C33.2364 0.25 42.75 9.76363 42.75 21.5C42.75 33.2364 33.2364 42.75 21.5 42.75C9.76363 42.75 0.25 33.2364 0.25 21.5C0.25 9.76363 9.76363 0.25 21.5 0.25ZM21.5 27.875C20.9364 27.875 20.3959 28.0989 19.9974 28.4974C19.5989 28.8959 19.375 29.4364 19.375 30C19.375 30.5636 19.5989 31.1041 19.9974 31.5026C20.3959 31.9011 20.9364 32.125 21.5 32.125C22.0636 32.125 22.6041 31.9011 23.0026 31.5026C23.4011 31.1041 23.625 30.5636 23.625 30C23.625 29.4364 23.4011 28.8959 23.0026 28.4974C22.6041 28.0989 22.0636 27.875 21.5 27.875ZM21.5 8.75C20.9795 8.75007 20.4772 8.94116 20.0882 9.28702C19.6993 9.63288 19.4508 10.1095 19.3899 10.6264L19.375 10.875V23.625C19.3756 24.1666 19.583 24.6876 19.9548 25.0814C20.3266 25.4752 20.8348 25.7122 21.3755 25.744C21.9162 25.7757 22.4486 25.5998 22.8639 25.2522C23.2792 24.9046 23.5462 24.4115 23.6101 23.8736L23.625 23.625V10.875C23.625 10.3114 23.4011 9.77091 23.0026 9.3724C22.6041 8.97388 22.0636 8.75 21.5 8.75Z" fill="#17B276"/>
</svg>
