<svg width="188" height="103" viewBox="0 0 188 103" fill="none" xmlns="http://www.w3.org/2000/svg">
<path d="M57.0484 6.5495V19.3465H49.259V44.7179C52.2635 44.551 55.2124 44.2728 58.0499 43.9389L58.6063 55.6231C39.6891 58.8502 17.7673 59.2953 1.74322 59.2953L0.0740451 46.3871L10.2004 46.2758V19.3465H2.63344V6.5495H57.0484ZM86.6484 0.0953671V62.2998H70.7356V48.1675H59.7191V35.4818H70.7356V28.6938H59.7191V16.1194H70.7356V0.0953671H86.6484ZM51.3733 63.7464C73.6289 63.7464 86.871 70.757 86.9823 83.2201C86.871 95.1269 73.6289 102.36 51.3733 102.249C29.3402 102.36 16.0981 95.1269 16.0981 83.2201C16.0981 70.757 29.3402 63.7464 51.3733 63.7464ZM51.3733 75.8758C38.465 75.8758 32.0109 78.1013 32.0109 83.2201C32.0109 88.0051 38.465 90.1194 51.3733 90.2306C64.3928 90.1194 70.9582 88.0051 71.0695 83.2201C70.9582 78.1013 64.3928 75.8758 51.3733 75.8758ZM25.668 45.942L34.0139 45.7194V19.3465H25.668V45.942ZM132.05 17.6773C131.939 28.36 136.835 38.7645 149.743 44.1615V1.9871H164.543V24.354H171.442V0.206645H186.687V62.5224H171.442V37.2623H164.543V59.2953H149.743V45.8307L142.176 56.8472C133.83 53.6201 128.1 48.0006 124.483 40.9344C120.811 49.3916 114.635 56.4021 105.343 60.1856L96.7747 47.8337C111.352 41.3795 116.36 29.0277 116.36 17.6773V6.32694H132.05V17.6773ZM151.412 63.5239C173.112 63.5239 187.133 70.8682 187.244 82.8863C187.133 94.9043 173.112 102.36 151.412 102.249C129.713 102.36 115.692 94.9043 115.803 82.8863C115.692 70.8682 129.713 63.5239 151.412 63.5239ZM151.412 75.5419C138.838 75.4307 131.716 77.8788 131.827 82.8863C131.716 87.8938 138.838 90.2306 151.412 90.2306C163.987 90.2306 170.997 87.8938 171.109 82.8863C170.997 77.8788 163.987 75.4307 151.412 75.5419Z" fill="#454545"/>
</svg>
